<svg width="24" height="24" viewBox="0 0 24 24" fill="none" xmlns="http://www.w3.org/2000/svg">
<g clip-path="url(#clip0_4_363)">
<path d="M22.5 1.77C21.9525 1.1475 21.15 0.75 20.25 0.75H3.75C2.0925 0.75 0.75 2.0925 0.75 3.75V22.5C0.75 22.9125 1.0875 23.25 1.5 23.25H18C18.4125 23.25 18.75 22.9125 18.75 22.5V9H22.5C22.9125 9 23.25 8.6625 23.25 8.25V3.75C23.25 2.9925 22.965 2.3025 22.5 1.77ZM17.25 21.75H2.25V3.75C2.25 2.925 2.925 2.25 3.75 2.25H17.655C17.4 2.6925 17.25 3.2025 17.25 3.75V6V8.25V21.75ZM21.75 7.5H18.75V6V3.75C18.75 2.925 19.425 2.25 20.25 2.25C21.075 2.25 21.75 2.925 21.75 3.75V7.5Z" fill="#A0A0A0"/>
<path d="M15 18H11.25C10.8355 18 10.5 18.3359 10.5 18.75C10.5 19.1641 10.8355 19.5 11.25 19.5H15C15.4145 19.5 15.75 19.1641 15.75 18.75C15.75 18.3359 15.4145 18 15 18Z" fill="#A0A0A0"/>
<path d="M15 10.5H4.5C4.08548 10.5 3.75 10.8359 3.75 11.25C3.75 11.6641 4.08548 12 4.5 12H15C15.4145 12 15.75 11.6641 15.75 11.25C15.75 10.8359 15.4145 10.5 15 10.5Z" fill="#A0A0A0"/>
<path d="M15 7.5H4.5C4.08548 7.5 3.75 7.83585 3.75 8.25C3.75 8.66415 4.08548 9 4.5 9H15C15.4145 9 15.75 8.66415 15.75 8.25C15.75 7.83585 15.4145 7.5 15 7.5Z" fill="#A0A0A0"/>
<path d="M15 4.5H4.5C4.08548 4.5 3.75 4.83585 3.75 5.25C3.75 5.66415 4.08548 6 4.5 6H15C15.4145 6 15.75 5.66415 15.75 5.25C15.75 4.83585 15.4145 4.5 15 4.5Z" fill="#A0A0A0"/>
</g>
<defs>
<clipPath id="clip0_4_363">
<rect width="24" height="24" fill="white"/>
</clipPath>
</defs>
</svg>
